<?xml version="1.0" encoding="utf-8"?>
<!-- Generator: Adobe Illustrator 26.0.2, SVG Export Plug-In . SVG Version: 6.00 Build 0)  -->
<svg version="1.1" id="Layer_1" xmlns="http://www.w3.org/2000/svg" xmlns:xlink="http://www.w3.org/1999/xlink" x="0px" y="0px"
	 viewBox="0 0 529 526.3" style="enable-background:new 0 0 529 526.3;" xml:space="preserve">
<style type="text/css">
	.st0{fill:#F9FDFF;}
</style>
<circle cx="263.1" cy="263.2" r="251.4"/>
<path class="st0" d="M262.7,165.8c41.2,0,82.3,0,123.5,0c6.3,0,11.3,4.7,11.5,10.7c0.2,5.8-4.4,10.5-10.4,11.1
	c-16.9,1.9-33.8,3.9-50.8,5.9c-6.4,0.7-12.8,1.5-19.2,2.2c-11.3,1.1-17.5,7.8-17.5,19.1c0,13.3-0.1,26.6,0,39.9
	c0.1,19.4,3.5,38.4,7.5,57.4c6.1,28.4,11.9,56.9,17.8,85.4c1.4,6.9-2.5,13.4-9.3,15.1c-6.6,1.7-13.1-2.1-15.2-9.1
	c-2.2-7.1-4.2-14.3-6.4-21.5c-7.4-25.1-14.8-50.2-22.2-75.3c-1.6-5.2-4.7-7.6-9.7-7.6c-5,0.1-7.9,2.4-9.5,7.8
	c-9.5,32.1-18.9,64.1-28.5,96.2c-1.9,6.5-6.9,10.1-13.1,9.8c-7.4-0.4-13-7.5-11.5-14.7c5.4-26.2,10.5-52.5,16.4-78.7
	c6.1-27,10-54.1,9-81.8c-0.3-7.8,0-15.6-0.1-23.4c-0.1-10.4-6.2-17.2-16.5-18.4c-18.2-2.1-36.3-4.2-54.5-6.3
	c-5.5-0.6-10.9-1.3-16.4-1.9c-6.3-0.6-10.5-5.2-10.3-11.4c0.2-6,5-10.4,11.4-10.4c9.6,0,19.1,0.1,28.7,0.1
	C199.3,165.9,231,165.9,262.7,165.8C262.7,165.9,262.7,165.9,262.7,165.8z"/>
<path class="st0" d="M262.2,97.8c15.4,0,27.9,12.5,27.9,28c0,15.6-12.6,28.1-28.2,28.1c-15.5,0-28.1-12.6-28-28.3
	C233.8,110.1,246.4,97.8,262.2,97.8z"/>
</svg>
