<?xml version="1.0" encoding="utf-8"?>
<!-- Generator: Adobe Illustrator 26.0.2, SVG Export Plug-In . SVG Version: 6.00 Build 0)  -->
<svg version="1.1" id="Layer_1" xmlns="http://www.w3.org/2000/svg" xmlns:xlink="http://www.w3.org/1999/xlink" x="0px" y="0px"
	 viewBox="0 0 366.1 305.8" style="enable-background:new 0 0 366.1 305.8;" xml:space="preserve">
<path d="M164.8,255.9c1.9-15.4,4.3-30.7,5.6-46.1c0.4-4.2-2.1-8.7-3.8-12.9c-3.5-8.5-0.3-14,8.7-14.3c6-0.2,12.1-0.2,18.2,0.1
	c6.3,0.4,10.9,6.4,7.7,11.6c-7.2,11.7-3.8,23.4-2.3,35.3c1.1,8.9,2.3,17.7,4.9,26.8c1-2.3,2.1-4.6,2.9-7c7.1-22.9,14.3-45.8,21-68.8
	c1.7-5.8,3.7-8.4,9.9-6.1c24.1,8.8,48.5,16.9,72.2,26.5c13.4,5.4,20.4,16.4,19.5,31.8c-0.6,10.4,0,20.8-0.1,31.3
	c-0.2,17.8-9.2,26.9-26.8,26.9c-79.2,0-158.5,0-237.7,0c-17.1,0-26.3-9.1-26.5-26.5c-0.1-10.7,0.4-21.4-0.1-32
	C37,217,44.5,207,57.6,200.7c7.8-3.8,16.1-6.7,24.3-9.7c15.7-5.6,31.6-10.9,47.3-16.5c6.4-2.3,8.7,0,10.5,6.3
	c6.6,23,13.9,45.9,20.9,68.8c0.7,2.2,1.8,4.3,2.6,6.5C163.7,256.1,164.3,256,164.8,255.9z"/>
<g>
	<path d="M186.5,68.9c7.1-5,13.2-9.4,13.2-16.2c0-7.1-5.3-13-17.8-13c-11.4,0-21,5.7-28.1,14.2L135.3,33
		c12.1-14.2,30.4-22.1,50-22.1c29.5,0,47.5,14.8,47.5,36.1c0,18.9-12.3,28.1-23.1,35.6c-8,5.9-15.1,11-15.1,19.4
		c0,3.7,1.8,7.5,4.1,9.6l-24.9,7.3c-4.8-5.3-7.5-12.1-7.5-20.1C166.4,83,177.3,75.5,186.5,68.9z M184.9,131c10,0,18.5,8.4,18.5,18.5
		c0,10-8.4,18.5-18.5,18.5c-10,0-18.5-8.4-18.5-18.5C166.4,139.4,174.8,131,184.9,131z"/>
</g>
</svg>
