<?xml version="1.0" encoding="utf-8"?>
<!-- Generator: Adobe Illustrator 26.0.2, SVG Export Plug-In . SVG Version: 6.00 Build 0)  -->
<svg version="1.1" id="Layer_1" xmlns="http://www.w3.org/2000/svg" xmlns:xlink="http://www.w3.org/1999/xlink" x="0px" y="0px"
	 viewBox="0 0 595.3 476.6" style="enable-background:new 0 0 595.3 476.6;" xml:space="preserve">
<style type="text/css">
	.st0{fill:#241F20;}
</style>
<g>
	<path class="st0" d="M509.3,144.4H85.9c-35.3,0-64.1-26-64.1-57.9s28.7-57.9,64.1-57.9h423.4c35.3,0,64.1,26,64.1,57.9
		S544.7,144.4,509.3,144.4z M85.9,50.3c-22.1,0-40.1,16.2-40.1,36.2s18,36.2,40.1,36.2h423.4c22.1,0,40.1-16.2,40.1-36.2
		s-18-36.2-40.1-36.2H85.9z"/>
</g>
<g>
	<path class="st0" d="M509.3,288.6H85.9c-35.3,0-64.1-26-64.1-57.9s28.7-57.9,64.1-57.9h423.4c35.3,0,64.1,26,64.1,57.9
		S544.7,288.6,509.3,288.6z M85.9,194.5c-22.1,0-40.1,16.2-40.1,36.2s18,36.2,40.1,36.2h423.4c22.1,0,40.1-16.2,40.1-36.2
		s-18-36.2-40.1-36.2H85.9z"/>
</g>
<path class="st0" d="M509.3,317.2H85.9c-35.3,0-64.1,26-64.1,57.9c0,31.9,28.7,57.9,64.1,57.9h423.4c35.3,0,64.1-26,64.1-57.9
	C573.4,343.1,544.7,317.2,509.3,317.2z"/>
</svg>
