<?xml version="1.0" encoding="utf-8"?>
<!-- Generator: Adobe Illustrator 26.0.2, SVG Export Plug-In . SVG Version: 6.00 Build 0)  -->
<svg version="1.1" id="Layer_1" xmlns="http://www.w3.org/2000/svg" xmlns:xlink="http://www.w3.org/1999/xlink" x="0px" y="0px"
	 viewBox="0 0 366.1 305.8" style="enable-background:new 0 0 366.1 305.8;" xml:space="preserve">
<g>
	<path d="M298.8,35.6c-77.9,0-155.7,0-233.6,0c-15.9,0-27.5,11.7-27.5,27.6c0,49.7,0,99.4,0,149.2c0,15.8,11.7,27.4,27.5,27.4
		c26.8,0,53.6,0,80.4,0c0,3.7,0,7.4,0.1,11.1c0.1,2.1-0.5,2.7-2.6,2.6c-8.4-0.1-16.9-0.1-25.3,0c-5,0-8.2,4.6-6.5,9.1
		c1,2.7,3,4.2,5.9,4.4c1.1,0.1,2.2,0,3.4,0c41.6,0,83.3,0,124.9,0.1c5.1,0,8.2-3.9,7.6-7.8c-0.5-3.5-3.3-5.8-7.1-5.8
		c-8.3,0-16.6-0.1-24.8,0c-2.3,0-2.9-0.7-2.8-2.9c0.1-3.6,0.1-7.2,0.1-10.8c26.7,0,53.4,0,80.1,0c16.1,0,27.7-11.5,27.8-27.6
		c0-49.7,0-99.4,0-149.2C326.3,47.3,314.6,35.6,298.8,35.6z M297.9,222.1c-77.2,0-154.4,0-231.6,0c-7.5,0-10.9-3.4-10.9-10.9
		c0-49,0-98.1,0-147.1c0-7.2,3.5-10.7,10.7-10.7c38.6,0,77.2,0,115.8,0c38.7,0,77.3,0,116,0c7,0,10.6,3.5,10.6,10.6
		c0,49.2,0,98.4,0,147.6C308.5,218.6,304.9,222.1,297.9,222.1z"/>
	<path d="M64.8,212.8c78.1,0,156.2,0,234.4,0c0-49.9,0-99.9,0-150.2c-78.2,0-156.2,0-234.4,0C64.8,112.6,64.8,162.6,64.8,212.8z
		 M208.9,73.3c9,0,18.1,0.1,27.1-0.1c2.2,0,3.1,0.7,3.7,2.7c14.3,41.3,28.6,82.5,42.9,123.8c0.3,0.7,0.4,1.5,0.7,2.5
		c-1.2,0-2,0-2.8,0c-9,0-18.1-0.1-27.1,0.1c-2.3,0-3.2-0.7-3.9-2.8c-11.4-33-22.8-65.9-34.3-98.9c-3.1-8.9-6.2-17.9-9.5-27.3
		C207.2,73.3,208,73.3,208.9,73.3z M189.4,73.2c1.8-0.1,2.4,0.6,3,2.2c14.4,41.6,28.8,83.1,43.3,124.7c0.2,0.6,0.4,1.3,0.6,2.1
		c-4.6,0-9-0.1-13.4,0.1c-2.1,0.1-2.9-0.6-3.6-2.6c-14.3-41.4-28.7-82.8-43.1-124.3c-0.2-0.6-0.3-1.2-0.6-2.2
		C180.3,73.3,184.9,73.3,189.4,73.2z"/>
</g>
</svg>
