<?xml version="1.0" encoding="utf-8"?>
<!-- Generator: Adobe Illustrator 26.0.2, SVG Export Plug-In . SVG Version: 6.00 Build 0)  -->
<svg version="1.1" id="Layer_1" xmlns="http://www.w3.org/2000/svg" xmlns:xlink="http://www.w3.org/1999/xlink" x="0px" y="0px"
	 viewBox="0 0 366.1 305.8" style="enable-background:new 0 0 366.1 305.8;" xml:space="preserve">
<g>
	<path d="M114,216.2c-1,1.2-1.5,2.5-1.5,3.9c0,2.6,0.1,5.2,0.5,7.8c0.6,3.1,2.5,4.4,6,4.1c2.3-0.2,4.7-0.7,6.8-1.6
		c1.6-0.6,3.1-1.8,4.2-3.1c16.5-19.8,33-39.7,49.5-59.6c13.2-15.9,26.3-31.7,39.5-47.6c8.9-10.7,17.7-21.4,26.6-32l-14.9-12.4
		c-1.2,1.4-2.3,2.8-3.4,4.2c-15.3,18.4-30.6,36.9-45.9,55.3C158.9,162.1,136.5,189.1,114,216.2z"/>
	<path d="M248.8,102.4c-18.1,21.9-36.3,43.8-54.5,65.7c-18,21.7-36,43.4-54.1,65c-2.2,2.7-4,5.5-3.9,9.1c0,0.6,0.1,1.3,0.2,1.9
		c0.2,1.7-0.1,2.5-1.8,3.1c-4.9,1.9-9.8,3.8-14.7,5.7c-5.1,2-10.3,4-15.4,6.1c-1.6,0.7-2.8,0.5-4.2-0.7c-3.4-3-7-5.9-10.5-8.7
		c-1.4-1.1-1.9-2.3-1.5-4.1c2-10.1,3.9-20.2,5.8-30.3c0.6-3.1,1.2-3.7,4.3-3.8c3-0.1,5.4-1.5,7.3-3.7c4.8-5.7,9.5-11.4,14.2-17.1
		c12.8-15.4,25.5-30.8,38.3-46.2c15.2-18.4,30.4-36.7,45.6-55c5.9-7.1,11.8-14.2,17.7-21.3l-17-14.2c-0.4,0.4-0.8,0.8-1.2,1.3
		c-21.1,25.5-42.2,50.9-63.3,76.4c-17.7,21.4-35.4,42.7-53.1,64.1c-1.5,1.8-2.5,3.9-3,6.2c-1,4.9-2,9.8-3,14.7
		c-1.9,9.7-3.9,19.3-5.8,29c-1.3,6.4-2.6,12.7-3.8,19.1c-1,5-2,10.1-2.9,15.1c-0.7,3.8,2.2,6.7,6,6c0.9-0.2,1.8-0.5,2.7-0.8
		c24.1-9.8,48.1-19.6,72.2-29.5c2.3-0.9,4.2-2.3,5.7-4.2c13.3-16,26.6-32,39.8-47.9c22.8-27.5,45.6-54.9,68.3-82.4
		c3-3.6,6-7.2,8.9-10.9l-17.6-14.6C252.7,97.7,250.7,100.1,248.8,102.4z"/>
	<path d="M298.4,71.2c-1-5.6-3-10.8-6-15.6C284,42,272.4,32,258.1,25c-6.4-3.1-13.2-4.6-20.2-5.1c-3.4-0.2-6.4,0.6-8.7,3.4
		c-3.6,4.3-7.3,8.4-11,12.6c-1.4,1.6-2.7,3.1-4,4.7c4.3,3.6,8.5,7.1,12.7,10.6l55.8,45.3c4.5-5.4,9-10.8,13.4-16.1
		C298.3,77.7,299,74.6,298.4,71.2z"/>
</g>
</svg>
