<?xml version="1.0" encoding="utf-8"?>
<!-- Generator: Adobe Illustrator 26.0.2, SVG Export Plug-In . SVG Version: 6.00 Build 0)  -->
<svg version="1.1" id="Layer_1" xmlns="http://www.w3.org/2000/svg" xmlns:xlink="http://www.w3.org/1999/xlink" x="0px" y="0px"
	 viewBox="0 0 595.3 476.6" style="enable-background:new 0 0 595.3 476.6;" xml:space="preserve">
<path d="M578.7,316.1c1-17-6.7-29.1-21.5-35.1c-12.4-5-24.9-9.6-37.4-14.1c-8.4-4.8-16.8-9.7-25.1-14.7c-1.6-1-3.1-2.1-4.4-3.2
	c-1.1-0.3-2.2-0.6-3.3-0.9c-5.4-1.5-10.9-3.8-15.6-6.9c-13.7-9.1-14.6-16.9-5.8-30.1c8.8-13.2,17.4-26.6,25.1-40.5
	c5.2-9.4,11.6-19.5-0.1-29.7c-2-1.7-1-7-1.1-10.6c-0.5-12.6,0.7-25.5-1.7-37.7c-5.1-26.1-26.6-38.1-47.8-48.6
	c-11.6-5.8-24.9-8.3-37.4-12.3l-2.8,3.2c5.1,11.9-1.1,15.5-10.7,19.6c-21.9,9.5-34.9,26.1-34.6,51.2c0.1,7.3,0.7,14.8-0.2,22
	c-0.7,5.4-4.5,10.5-5,15.9c-0.8,8-2.3,17.3,0.9,24c6.8,14.3,16,27.4,24.8,40.6c8.4,12.6,4.5,29.9-10.1,35.8
	c-0.4,0.2-0.8,0.3-1.2,0.4c-0.9,1-1.8,1.9-2.8,2.9c-2.1,1.9-4.3,3.6-6.4,5.4c-16.4,5.8-32.8,11.3-49.1,17.1
	c-0.3,0.1-0.5,0.2-0.8,0.3c1.9,0.7,3.7,1.5,5.7,2l5.4,1.5l1.2,1c1.5,1.3,2.9,2.3,4.3,3.1c9.7,5.8,19.5,11.4,29.3,17.1
	c13.2,4.8,28.8,10.4,44.2,16.6c20.8,8.4,31.5,25.7,30.1,48.8c-0.4,6.6-0.4,13.3-0.3,19.9c41.5,0,83,0,124.5,0
	c19.4,0,29.5-10,29.7-29.7C578.7,339.2,578.1,327.6,578.7,316.1z"/>
<path d="M399.6,369.1c1.2-20.2-8-34.6-25.6-41.7c-14.7-5.9-29.6-11.4-44.5-16.8c-10-5.8-20-11.5-29.9-17.5c-2-1.2-3.7-2.5-5.3-3.8
	c-1.3-0.4-2.6-0.7-3.9-1c-6.4-1.8-13-4.5-18.5-8.2c-16.3-10.9-17.4-20.1-6.9-35.8c10.5-15.7,20.8-31.6,29.9-48.1
	c6.1-11.1,13.8-23.2-0.1-35.3c-2.3-2-1.2-8.3-1.4-12.6c-0.6-15,0.8-30.3-2-44.8c-6.1-31.1-31.6-45.3-56.9-57.9
	c-13.8-6.9-29.6-9.9-44.4-14.6l-3.3,3.8c6.1,14.1-1.2,18.4-12.7,23.4c-26.1,11.2-41.6,31.1-41.2,61c0.1,8.7,0.9,17.6-0.2,26.2
	c-0.8,6.5-5.4,12.5-6,18.9c-0.9,9.5-2.7,20.6,1,28.5c8,17,19.1,32.6,29.5,48.3c10,15,5.3,35.6-12,42.6c-0.5,0.2-1,0.3-1.4,0.5
	c-1,1.2-2.1,2.3-3.4,3.4c-2.5,2.2-5.1,4.3-7.6,6.4c-19.4,6.9-39,13.4-58.4,20.3c-10.8,3.9-21.6,7.7-31.9,12.7
	c-17.1,8.3-27.1,21.4-25.9,41.7c0.8,14,0,28,0.2,42.1c0.3,22.8,12.4,34.8,34.9,34.8c104.2,0,208.4,0,312.5,0
	c23.1,0,35-11.9,35.3-35.4C399.5,396.5,398.7,382.8,399.6,369.1z"/>
</svg>
