<?xml version="1.0" encoding="utf-8"?>
<!-- Generator: Adobe Illustrator 26.0.2, SVG Export Plug-In . SVG Version: 6.00 Build 0)  -->
<svg version="1.1" id="Layer_1" xmlns="http://www.w3.org/2000/svg" xmlns:xlink="http://www.w3.org/1999/xlink" x="0px" y="0px"
	 viewBox="0 0 366.1 426.3" style="enable-background:new 0 0 366.1 426.3;" xml:space="preserve">
<path d="M312.3,305.4c-4.8,5.5-10.8,7.5-18.2,7.3c-14.1-0.4-28.1,0-42.2,0.2c-8.4,0.2-16.2,2.3-20.4,10.5
	c-4.3,8.2,0.6,14.8,4.5,21.6c3.7,6.7,8.8,13.2,10.1,20.4c2.7,14.6-5.8,27.4-19.8,33.5c-15.4,6.7-34.8,2.5-45.2-9.7
	c-9.1-10.7-9.6-26.1-1.1-39.2c1-1.5,2.2-2.8,3.2-4.3c4.7-6.9,8.8-14.4,4.4-22.5c-4.2-7.9-12.4-9.9-20.8-9.8
	c-14.1,0-28.1,0.2-42.2,0.2c-14.1,0.1-17.2-3.1-17.3-17.4c-0.1-12.6,0-25.2-0.3-37.7c-0.1-4.4-0.6-9-1.8-13.3
	c-3.8-13.7-13.1-18-26-12c-4.6,2.1-8.9,4.9-13.4,7.2c-14.1,7.3-28.3,4.8-38.2-6.6c-9.6-11.1-10.1-29.8-1.1-42.7
	c8.7-12.4,22.9-16.6,37.2-10.4c5.5,2.3,10.5,5.7,15.7,8.5c15.4,8.4,23.1,5.2,25.5-12c1.5-10.6,1.1-21.4,1.4-32.2
	c0.2-6.9-0.1-13.8-0.1-20.7c0-13.3,2.9-16.2,16.5-16.3c14.4-0.2,28.7-0.4,43.1-0.2c8.2,0.1,16-0.9,20.2-8.7
	c4.4-8.2-0.1-15.3-4.2-22.6c-3.9-6.9-8.3-14.2-9.4-21.7c-2.2-14.9,7.1-27.2,22.2-32.8c15.4-5.7,34.8-0.6,43.9,11.7
	c8.9,11.9,8.4,25.9-1.1,39c-2.3,3.1-4.7,6.3-6.3,9.7c-6.3,13.1,0.6,24.5,15.2,24.7c16.5,0.3,32.9,0.1,49.4-0.3
	c7-0.2,12.2,2,15.6,8.1c0.1,19.8,0.3,39.5,0.4,59.3c-8.8,17.7-17,19.6-33.6,7.8c-1-0.7-1.9-1.5-2.9-2.1c-9.7-5.6-19.7-8.8-30.7-3.9
	c-14.4,6.5-21.2,18.3-21.6,33.4c-0.4,14.7,5.5,27,18.9,34.3c13.2,7.2,25.1,3.5,36.4-5.4c16-12.7,25.6-10.2,33.9,7.8
	C312.1,265.9,312.2,285.6,312.3,305.4z"/>
</svg>
