<?xml version="1.0" encoding="utf-8"?>
<!-- Generator: Adobe Illustrator 26.0.2, SVG Export Plug-In . SVG Version: 6.00 Build 0)  -->
<svg version="1.1" id="Layer_1" xmlns="http://www.w3.org/2000/svg" xmlns:xlink="http://www.w3.org/1999/xlink" x="0px" y="0px"
	 viewBox="0 0 366.1 305.8" style="enable-background:new 0 0 366.1 305.8;" xml:space="preserve">
<g>
	<path d="M153.5,207H69.2l-11.9,32.5H13.2l73-188.6h50.3l72.7,188.6h-43.8L153.5,207z M79.9,172.2h62.5l-31.1-86.5L79.9,172.2z"/>
	<path d="M307.9,225.4c-9.3,11-25.4,17.5-43.3,17.5c-21.8,0-47.5-14.7-47.5-45.2c0-32,25.7-43.5,47.5-43.5
		c18.1,0,34.2,5.7,43.3,16.7v-18.9c0-13.9-11.9-22.9-30-22.9c-14.7,0-28.3,5.4-39.9,16.1l-13.6-24c16.7-14.7,38.2-21.5,59.7-21.5
		c31.1,0,59.7,12.4,59.7,51.7v88.2h-35.9V225.4z M307.9,189.7c-5.9-7.9-17.2-11.9-28.8-11.9c-14.1,0-25.7,7.6-25.7,20.6
		c0,12.7,11.6,20.1,25.7,20.1c11.6,0,22.9-4,28.8-11.9V189.7z"/>
</g>
</svg>
