<?xml version="1.0" encoding="utf-8"?>
<!-- Generator: Adobe Illustrator 26.0.2, SVG Export Plug-In . SVG Version: 6.00 Build 0)  -->
<svg version="1.1" id="Layer_1" xmlns="http://www.w3.org/2000/svg" xmlns:xlink="http://www.w3.org/1999/xlink" x="0px" y="0px"
	 viewBox="0 0 366.1 305.8" style="enable-background:new 0 0 366.1 305.8;" xml:space="preserve">
<path d="M336.4,203.3h-30.8c3.5-0.2,6.8-0.4,10.3-0.6c0-5.5,0-10.6,0-15.7c0-18.6-11.3-29.9-29.8-29.9c-29.4,0-58.7,0-88.1,0
	c-1.9,0-3.8,0-5.8,0c0-17.1,0-33.6,0-50.6h66c8,0,14.5-6.5,14.5-14.5V44.9c0-8-6.5-14.5-14.5-14.5H109.7c-8,0-14.5,6.5-14.5,14.5
	v47.1c0,8,6.5,14.5,14.5,14.5h66.6c0,17,0,33.5,0,50.6c-2.2,0-4.1,0-5.9,0c-28.9-0.1-57.8-0.1-86.6-0.2c-20.4,0-31.2,10.9-31.2,31.5
	c0,3.7-0.2,7.4,0,11.1c0.1,2-0.3,3.1-1.4,3.7H30.6c-1.6,0-3.2,0.3-4.7,0.8c-2.4,0.4-4,1.3-4.9,2.9c-3,2.7-4.9,6.6-4.9,10.9v43
	c0,8,6.5,14.5,14.5,14.5h55.4c8,0,14.5-6.5,14.5-14.5v-43c0-8-6.5-14.5-14.5-14.5H66.8c1-0.7,1.4-2.1,1.3-4.1
	c-0.2-4.2-0.1-8.4-0.1-12.6c0-9.7,4.5-14.1,14.2-14.1c29.8,0,59.7,0,89.5,0c1.5,0,3.1,0.1,4.8,0.2c0,9.5-0.1,18.3,0.1,27.2
	c0,1,0.9,2.7,1.7,3.3h-21.7c-8,0-14.5,6.5-14.5,14.5v43c0,8,6.5,14.5,14.5,14.5h55.4c8,0,14.5-6.5,14.5-14.5v-43
	c0-8-6.5-14.5-14.5-14.5h-24.1c1.3-0.1,2.5-0.2,3.8-0.2c0-10.4,0-20,0-30.3c2-0.1,3.4-0.2,4.9-0.2c30.2,0,60.3,0,90.5,0
	c8.3,0,13.1,4.9,13.1,13.2c0,5.7,0,11.3,0,17.5h-19.5c-8,0-14.5,6.5-14.5,14.5v43c0,8,6.5,14.5,14.5,14.5h55.4
	c8,0,14.5-6.5,14.5-14.5v-43C350.9,209.9,344.4,203.3,336.4,203.3z"/>
</svg>
