<?xml version="1.0" encoding="utf-8"?>
<!-- Generator: Adobe Illustrator 26.0.2, SVG Export Plug-In . SVG Version: 6.00 Build 0)  -->
<svg version="1.1" id="Layer_1" xmlns="http://www.w3.org/2000/svg" xmlns:xlink="http://www.w3.org/1999/xlink" x="0px" y="0px"
	 viewBox="0 0 366.1 305.8" style="enable-background:new 0 0 366.1 305.8;" xml:space="preserve">
<path d="M316.8,180.3c0.4,6.6,2.8,12.1,7.4,16.7c3,2.9,3.2,5.7,0.6,9c-4.5,5.6-9.5,10.6-15,15.1c-3.2,2.6-5.9,2.4-8.9-0.4
	c-6.7-6.5-14.7-8.7-23.5-5.6c-8.8,3-13.6,9.7-15.1,18.8c-0.2,1.4-0.2,2.8-0.3,4.2c-0.1,2.7-2.1,5.1-4.7,5.4
	c-7.5,0.9-14.9,1.1-22.4,0.2c-4.7-0.5-6.3-2.4-6.3-7.2c0-10.1-6.3-18.9-15.9-21.7c-8.7-2.6-16.3,0-22.9,5.9
	c-3.8,3.3-5.9,3.7-9.6,0.3c-4.9-4.5-9.6-9.1-14.1-14c-3.3-3.5-3-6.8,0.3-10.3c3.1-3.2,5-7,5.9-11.3c2.8-13.1-7.3-26.3-20.6-27
	c-1.4-0.1-2.7,0-4.1-0.3c-2.5-0.4-4.3-2.1-4.4-4.6c-0.3-6.5-0.4-13.1-0.6-19.6c0-0.8,0.1-1.6,0.2-2.4c0.2-4.4,2.4-6.5,6.8-6.5
	c8.4-0.1,15-3.7,19.7-10.7c5.8-8.7,4.3-20.5-3.3-28.1c-3.6-3.6-3.9-6-0.5-9.7c4.7-5.1,9.6-9.9,14.7-14.7c3-2.8,5.8-2.5,8.8,0.4
	c8.7,8.5,21.6,9.3,30.4,1.7c5.5-4.7,8.4-10.7,8.4-18c0-3.9,1.7-6,5.6-6.5c7.4-1,14.8-0.9,22.2-0.2c4,0.4,5.7,2.6,5.7,6.6
	C261,59,271.5,69.6,284.4,69.2c6.2-0.2,11.5-2.5,15.9-7c3.1-3.2,6-3.6,9.2-0.6c5.1,4.7,9.9,9.6,14.7,14.6c2.9,3,2.6,6.5-0.3,9.6
	c-4.4,4.6-6.7,10-6.7,16.4c0,12.1,10.3,22.3,22.4,22.3c4.4,0,6.9,1.8,7.2,5.2c0.3,3,0.7,6,0.6,9.1c0,4.4-0.2,8.9-0.6,13.3
	c-0.3,3.8-2.5,5.7-6.4,5.6c-9.5-0.1-18.7,5.9-21.9,14.6C317.7,174.9,317.4,177.7,316.8,180.3z M244.7,198.2
	c31.4,0.1,56.9-25.1,57-56.2c0.1-31.6-25-57.2-56.3-57.3c-31.5-0.2-57.1,25.2-57.3,56.7C187.9,172.5,213.3,198.1,244.7,198.2z"/>
<path d="M57.1,152.4c-0.5-2.1-0.9-4.3-1.6-6.4c-1-2.9-0.4-4.9,2.4-6.1c4.6-2,9.4-3.8,14.1-5.5c2.9-1,4.7,0,5.9,2.9
	c2.6,6.3,7.3,10.2,14.2,10.6c7.5,0.5,12.9-3.2,16.3-9.8c1.5-2.9,3.1-3.9,6.1-2.7c4.7,1.9,9.3,3.9,13.9,6.2c3,1.5,3.5,3.3,2.1,6.4
	c-4.2,9.6,1,20.4,11,22.7c3.5,0.8,6.8,0.6,10.2-0.8c2.6-1.1,4.8-0.4,6,2.2c1.9,4.5,3.7,9.1,5.4,13.8c1.2,3.4,0.2,5.3-3.1,6.8
	c-4.7,2-7.9,5.4-9.5,10.3c-2.5,7.8,1.2,16.2,8.6,19.7c3.6,1.7,4.4,3.1,2.9,6.9c-1.7,4.3-3.7,8.5-5.6,12.7c-1.3,2.9-3.6,3.9-7,2.5
	c-9.5-4.2-20.1,1.2-22.5,11.1c-0.8,3.3-0.5,6.6,0.7,9.8c1.2,3.2,0.7,5.1-2.5,6.4c-4.5,1.9-9.1,3.7-13.8,5.3c-3.1,1-4.8,0.1-6-2.9
	c-2-5-5.5-8.3-10.6-9.9c-7.7-2.4-16.3,1.6-19.8,9.1c-1.4,3.1-3.1,4-6.2,2.7c-4.6-1.8-9.1-3.8-13.5-6c-3.2-1.5-3.7-3.4-2.3-6.7
	c4.1-9.5-0.8-19.9-10.7-22.4c-3.4-0.9-6.8-0.6-10.2,0.5c-3.6,1.2-5.2,0.6-6.7-2.8c-1.8-4.3-3.5-8.7-5-13.1c-1.2-3.4-0.1-5.3,3.2-6.7
	c6.4-2.7,10.5-8.7,10.2-15.6c-0.2-6.7-3.6-11.6-9.6-14.5c-3.4-1.7-4.2-3.2-2.8-6.6c1.7-4.4,3.6-8.6,5.7-12.8
	c1.7-3.5,3.3-3.8,6.9-2.4C44.1,171.3,56.4,165.2,57.1,152.4z M91.3,239c18.4,0,33.2-14.7,33.2-33c0-18-14.9-33-32.9-33
	c-18.2-0.1-33.1,14.8-33.1,32.9C58.4,224.2,73.1,238.9,91.3,239z"/>
<path d="M132.2,120.8c0.3,1.1,0.5,2.7,1,4.2c0.7,2.3,0.4,3.6-1.7,4.6c-3.5,1.5-7.1,2.9-10.7,4.1c-2.2,0.8-3.5,0-4.4-2.2
	c-2-4.8-5.6-7.7-10.9-8c-5.6-0.2-9.5,2.5-12,7.4c-1.1,2.1-2.3,2.8-4.5,2c-3.6-1.4-7.1-3-10.5-4.6c-2.2-1.1-2.5-2.4-1.6-4.7
	c3.4-8.1-1.1-16.3-9.8-17.3c-1.9-0.2-4,0.2-6,0.7c-2.6,0.6-3.8,0.4-4.8-2c-1.4-3.2-2.7-6.5-3.8-9.8c-0.9-2.7-0.2-4.2,2.4-5.3
	c5-2.2,7.8-6.4,7.6-11.8c-0.2-4.9-2.6-8.4-6.9-10.6c-2.8-1.5-3.4-2.5-2.2-5.4c1.2-3.2,2.6-6.3,4.1-9.3c1.3-2.7,2.5-3,5.3-1.9
	c7.4,3,15.3-0.9,16.9-8.6c0.5-2.3,0-4.9-0.5-7.2c-0.6-2.6-0.4-3.9,2.1-4.9c3.4-1.4,6.9-2.7,10.4-3.9c2.1-0.7,3.5,0,4.3,2
	c2,5,5.6,8,11.1,8.1c5.6,0.2,9.5-2.7,11.9-7.6c1-1.9,2.2-2.6,4.2-1.9c3.6,1.4,7.1,2.9,10.5,4.6c2.5,1.2,2.8,2.4,1.7,5
	c-3.1,7.4,0.7,15.3,8.5,17c2.3,0.5,4.9,0,7.2-0.5c2.5-0.5,3.8-0.3,4.8,2c1.4,3.2,2.7,6.5,3.8,9.8c1,2.9,0.3,4.1-2.5,5.4
	c-7.9,3.6-10.1,13.3-4.2,19.6c1.1,1.2,2.7,2.2,4.2,3c2.2,1.2,2.8,2.3,1.9,4.7c-1.3,3.4-2.8,6.7-4.4,10c-1.3,2.6-2.4,2.9-5.1,1.8
	c-7.5-3-15.2,1-17,8.7C132.3,118.6,132.3,119.5,132.2,120.8z M106.1,104.8c13.7,0,24.8-11,24.8-24.7c0.1-13.9-10.9-24.9-24.8-24.9
	c-13.8,0-24.8,10.9-24.8,24.6C81.4,93.6,92.4,104.7,106.1,104.8z"/>
</svg>
