<?xml version="1.0" encoding="utf-8"?>
<!-- Generator: Adobe Illustrator 26.0.2, SVG Export Plug-In . SVG Version: 6.00 Build 0)  -->
<svg version="1.1" id="Layer_1" xmlns="http://www.w3.org/2000/svg" xmlns:xlink="http://www.w3.org/1999/xlink" x="0px" y="0px"
	 viewBox="0 0 366.1 305.8" style="enable-background:new 0 0 366.1 305.8;" xml:space="preserve">
<path d="M283.2,210.1c-8.4-9.6-9.4-20.2-3.8-31.2c1.7-3.5,5.1-6.1,7.7-9.1c0.6-0.7,1.7-1.6,1.7-2.3c-0.5-6-1.2-12-1.9-18.6
	c-9.6,3.2-18.2,6.1-26.8,8.9c-23.8,7.9-47.6,15.8-71.4,23.9c-5.6,1.9-11,1.9-16.6,0c-32.5-10.9-65.1-21.7-97.6-32.6
	c-0.9-0.3-1.7-0.5-3-0.9c-0.1,1.5-0.2,2.7-0.2,3.9c0,12.9,0.4,25.9-0.2,38.8c-0.5,12.1,5,20.4,14.4,26.9c12,8.2,25.5,12.7,39.5,16
	c27.1,6.3,54.5,7.3,82.1,4.6c18.6-1.8,36.6-5.6,53.9-12.8C270.9,221.4,279.2,215.5,283.2,210.1z"/>
<path d="M353,262.6c-14.1-13.9-23.2-30.3-27.3-49.2c7.9-3.6,13.4-11.5,13.4-20.8c0-7.4-3.6-14-9.1-18.1c-1-1.2-2.1-2.3-3.4-3.2
	c-1.2-0.9-2.5-2.3-2.6-3.6c-1.6-16-4.6-31.5-15.2-44.8c10.5-3.5,20.5-6.8,30.5-10.2c2.1-0.7,4.2-1.3,6.2-2.1
	c3.1-1.1,5.2-3.1,5.2-6.6c0-3.6-2-5.7-5.3-6.8c-12.4-4.2-24.9-8.3-37.3-12.5c-40.8-13.6-81.7-27.2-122.5-40.9
	c-3.6-1.2-6.8-1.1-10.4,0.1C122.4,61.5,69.6,79,16.9,96.7c-2.2,0.7-4.5,2.1-5.8,3.8c-2.7,3.8-0.5,8.4,4.7,10.1
	c10.2,3.5,20.5,6.9,30.8,10.3c42.8,14.3,85.6,28.6,128.4,42.9c3.5,1.2,6.7,1.4,10.4,0.2c27.2-9.2,54.4-18.2,81.6-27.2
	c0.3-0.1,0.5-0.2,0.8-0.3l23.5-7.8c8.8,7.5,13.5,18,15.2,30.7c0.2,1.4,0.3,2.7,0.6,4.1c0.8,3.6,0.4,6.4-1.9,9.3
	c-7,3.9-11.7,11.3-11.7,19.8c0,8.5,4.7,15.8,11.5,19.7c-1.4,12-2.3,24-0.6,36.1c1.7,12,7.1,22.1,17.2,29.3c4.7,3.3,9.6,4.4,14.9,1.7
	c5.7-3,11.5-5.9,17.1-8.9c1.3-0.7,2.3-1.8,3.8-3C355.8,265.6,354.5,264,353,262.6z"/>
</svg>
