<?xml version="1.0" encoding="utf-8"?>
<!-- Generator: Adobe Illustrator 26.0.2, SVG Export Plug-In . SVG Version: 6.00 Build 0)  -->
<svg version="1.1" id="Layer_1" xmlns="http://www.w3.org/2000/svg" xmlns:xlink="http://www.w3.org/1999/xlink" x="0px" y="0px"
	 viewBox="0 0 366.1 305.8" style="enable-background:new 0 0 366.1 305.8;" xml:space="preserve">
<path d="M309.6,52.2c0,54.8,0,110.3,0,166.4c-41.5-0.5-82.1,1.4-120.5,24c0-20,0-37.5,0-55c0-35.8,0.3-71.7,0-107.5
	c0-5.6,2-8.6,6.4-11.3c16.6-10.4,35-15.2,54.1-16.3C269.4,51.3,289.3,52.2,309.6,52.2z"/>
<path d="M55.4,218.7c0-56.1,0-111.7,0-169c22.1,1.2,43.2,1.9,64.3,3.5c17.4,1.3,34.2,5.7,49,15.5c2.7,1.8,5.6,5.9,5.6,8.9
	c0.3,53.2,0.1,106.3,0,159.5c0,1.1-0.4,2.1-0.9,5.1C136.5,220.3,96.3,218,55.4,218.7z"/>
<path d="M20.3,68.9c8,0,14.6,0,22.4,0c0,53.4,0,106.6,0,160.4c38.9,5.1,79.3-4.4,116.8,18.2c-47.8,0-93.3,0-139.1,0
	C20.3,187.7,20.3,128.8,20.3,68.9z"/>
<path d="M344.6,68.2c0,59.9,0,118.9,0,178.6c-45.6,0-90.5,0-135.4,0c34.9-19.2,73.4-15.3,112.4-17.1c0-53.7,0-107.3,0-161.5
	C330.1,68.2,337.1,68.2,344.6,68.2z"/>
</svg>
