<?xml version="1.0" encoding="utf-8"?>
<!-- Generator: Adobe Illustrator 26.0.2, SVG Export Plug-In . SVG Version: 6.00 Build 0)  -->
<svg version="1.1" id="Layer_1" xmlns="http://www.w3.org/2000/svg" xmlns:xlink="http://www.w3.org/1999/xlink" x="0px" y="0px"
	 viewBox="0 0 366.1 305.8" style="enable-background:new 0 0 366.1 305.8;" xml:space="preserve">
<path d="M309.9,245.5c-3.1-3-6.2-5.7-9.1-8.4c-9.4-8.8-18.9-17.7-28.3-26.6c-8.1-7.6-16.2-15.1-24.3-22.6c-1.3-1.3-2.7-2.5-4-3.8
	c0.8-2.2,1.3-4.5,1.3-6.9c0-3.5-1.1-7.2-3.3-10.4c7.1-14.4,10.8-29.4,10.8-44.8c0-8-1-16-2.9-24.1c-5.5-22.8-17.8-42-36.7-56.1
	c-18.4-13.8-38.7-20.9-60-20.9c-10.2,0-20.7,1.6-31.3,4.8c-22.7,6.8-40.9,20.8-53.8,40.5c-11.1,16.9-16.7,35.2-16.7,54.5
	c0,6.8,0.7,13.6,2,20.6c4.6,23.6,16.6,43.3,35.2,58.5c16.4,13.4,35.5,20.9,56.6,22.3c2.4,0.2,4.8,0.2,7.2,0.2
	c15.5,0,30.4-3.5,44.5-10.5c0.2-0.1,0.3-0.2,0.5-0.2c0.8,0.7,1.6,1.1,2.2,1.4c0.8,0.3,1.3,0.5,1.6,0.6c2.2,0.7,4.4,1.1,6.7,1.1
	c3,0,6-0.8,8.6-2.2c1,1.1,2,2.1,2.9,3.2c10,10.7,19.9,21.3,29.9,32c4.8,5.1,9.6,10.3,14.4,15.4c4.7,5,9.4,9.9,14.1,14.9
	c3.2,3.4,7.6,5.1,12.2,5.1c4.1,0,8.6-1.6,11.8-5.2c2.5-2.9,5.7-5.7,8.9-8.9c0.6-0.6,1.2-1.3,1.9-2.3c1.7-2.6,2.5-5.6,2.5-8.5
	C315.3,253.4,313.4,248.9,309.9,245.5z M79.3,121.6l0-0.2v0c0.1-39.9,32.4-72.8,73.2-72.8l1.3,0h0c39.2,0.7,71.7,32.4,71.8,73.3
	c-0.2,40-32.2,72.9-73.2,72.9c-0.7,0-1.3,0-2,0l0,0C111.6,193.7,79.3,162.1,79.3,121.6z"/>
<path d="M186.9,79.6c4,5.1,3.9,10.1,0.1,14c-3.5,3.6-9.9,3.5-13.3-0.3c-2.2-2.5-4.5-4.9-7.6-6.2c-6.8-2.9-13.2-2.3-19.2,2
	c-2.4,1.8-5.1,2.7-8,2.1c-3.9-0.8-6.4-3.2-7.4-7c-1-3.9,0.2-7.4,3.4-9.8c11-8.2,23.1-10.2,36.1-5.8C177.5,70.8,183,74.8,186.9,79.6z
	"/>
</svg>
