<?xml version="1.0" encoding="utf-8"?>
<!-- Generator: Adobe Illustrator 26.0.2, SVG Export Plug-In . SVG Version: 6.00 Build 0)  -->
<svg version="1.1" id="Layer_1" xmlns="http://www.w3.org/2000/svg" xmlns:xlink="http://www.w3.org/1999/xlink" x="0px" y="0px"
	 viewBox="0 0 366.1 305.8" style="enable-background:new 0 0 366.1 305.8;" xml:space="preserve">
<path d="M124.1,118.6c0.4-0.3,0.7-0.5,1.1-0.8c1.2-0.3,2-1.1,2.6-2.2c19.7-15.2,35.4-33.2,43.3-57.4c4.2-12.8,8.8-25.4,14.9-37.4
	c7.6-15,27.1-18.5,39-7.2c6.9,6.5,8.1,15.5,8.7,24.4c1.4,21.6-2.4,42.7-6.9,63.7c-1.2,5.8,0.3,6.7,5.6,6.6c17.9-0.3,35.7,0,53.6-0.1
	c25.1-0.1,38.4,24.5,28.6,43.1c-1.5,2.9-0.6,4.3,1.4,6.4c14.9,15.5,15.2,28.4,0.7,44.6c-2.7,3-2.9,5.2-1.5,8.8
	c5.5,14.4,2.8,24.7-9.1,34.8c-3.2,2.7-4,4.7-2.4,8.9c7.2,18.9-6.6,39.6-26.6,39.8c-30.7,0.2-61.4,1.2-92-0.8
	c-16-1-31.6-4.3-47.2-7.7c-5.4-1.6-10.8-3.3-16.2-4.9c-0.4-0.1-0.8-0.2-1.2-0.3c-1.2-0.8-2.4-1.7-3.7-2.5
	c-0.1-34.5-0.2-68.9-0.3-103.4c0-16.4,0.1-32.8,0.2-49.2c0.3-0.5,0.7-0.9,1-1.4c0,0,0.1-0.2,0.1-0.2
	C119.7,122.3,121.9,120.5,124.1,118.6z"/>
<path d="M97.4,275.8c-17.2-0.1-34.4-0.3-51.5-0.4c-3.6-1.7-5.8-4.5-6.7-8.4c0-40.8,0-81.6,0-122.4c0.1-1.7,0.2-3.4,0.4-5
	c0.3-0.2,0.3-0.4,0.2-0.7c1.6-2.9,4.2-4.7,7.2-5.8c16.8,0,33.7-0.1,50.5-0.1c0.4,0.1,0.8,0.2,1.2,0.3c0.2,0.5,0.4,0.9,0.6,1.4
	c-0.2,0.4-0.2,0.7,0,1.1C99.2,148.5,99,161.2,99,174c0,31.8,0.2,63.7,0.2,95.5C98.5,271.6,99.6,274.1,97.4,275.8z"/>
</svg>
