<svg width="1576" height="1331" viewBox="0 0 1576 1331" fill="none" xmlns="http://www.w3.org/2000/svg">
<path d="M34 28.5555C34 26.3464 35.7909 24.5555 38 24.5555H1542C1544.21 24.5555 1546 26.3464 1546 28.5555V66.037H34V28.5555Z" fill="#CBE9BF"/>
<path d="M34 119.963H1546V66.037H34V119.963Z" fill="white"/>
<path d="M34 119.963H1546V66.037H34V119.963Z" fill="white"/>
<path d="M34 122.037H1546V1281.44H34V122.037Z" fill="white"/>
<path d="M34 122.037H1546V1281.44H34V122.037Z" fill="white"/>
<path d="M34 122.037H1546V119.963H34V122.037Z" fill="#CCCDCD"/>
<circle cx="60.9629" cy="45.2963" r="5.97222" fill="#F95F57" stroke="#E14137" stroke-width="0.5"/>
<circle cx="81.7037" cy="45.2963" r="5.97222" fill="#FEBC2E" stroke="#E09C15" stroke-width="0.5"/>
<circle cx="102.444" cy="45.2963" r="5.97222" fill="#28C840" stroke="#18AA20" stroke-width="0.5"/>
<rect x="156.37" y="74.3333" width="989.333" height="35.2593" rx="15" fill="#E1E1E2"/>
<circle cx="174" cy="91.963" r="11.4074" fill="white"/>
</svg>
