<svg width="1599" height="1394" viewBox="0 0 1599 1394" fill="none" xmlns="http://www.w3.org/2000/svg">
<path d="M570.103 1295.93L587.565 1157H846V1392.76C740.647 1393.7 522.956 1395.01 495.017 1392.76C467.078 1390.51 472.899 1379.66 479.301 1374.52C493.853 1366.56 527.496 1348.41 545.656 1339.43C563.817 1330.45 569.521 1306.69 570.103 1295.93Z" fill="url(#paint0_linear_231_72)"/>
<path d="M877.322 1295.93L860.846 1157H617V1392.76C716.406 1393.7 921.808 1395.01 948.169 1392.76C974.531 1390.51 969.039 1379.66 962.998 1374.52C949.268 1366.56 917.524 1348.41 900.389 1339.43C883.254 1330.45 877.871 1306.69 877.322 1295.93Z" fill="url(#paint1_linear_231_72)"/>
<path d="M2 45H1523.42C1542.52 45 1558 60.4745 1558 79.5632V1092.53C1558 1129.24 1528.23 1159 1491.5 1159H2V45Z" fill="#030303"/>
<path d="M2 1000H1558V1092.75C1558 1129.34 1528.23 1159 1491.5 1159H2V1000Z" fill="#E1E1E2"/>
<path d="M0 104H1497V947H0V104Z" fill="white"/>
<defs>
<linearGradient id="paint0_linear_231_72" x1="660" y1="1157" x2="660" y2="1394" gradientUnits="userSpaceOnUse">
<stop stop-color="#BAB3B3"/>
<stop offset="0.333333" stop-color="#D3CECE"/>
<stop offset="0.666667" stop-color="white"/>
<stop offset="1" stop-color="#C2BDBD"/>
</linearGradient>
<linearGradient id="paint1_linear_231_72" x1="792.5" y1="1157" x2="792.5" y2="1394" gradientUnits="userSpaceOnUse">
<stop stop-color="#BAB3B3"/>
<stop offset="0.333333" stop-color="#D3CECE"/>
<stop offset="0.666667" stop-color="white"/>
<stop offset="1" stop-color="#C2BDBD"/>
</linearGradient>
</defs>
</svg>
