<svg width="1465" height="1081" viewBox="0 0 1465 1081" fill="none" xmlns="http://www.w3.org/2000/svg">
<path d="M1172 1081C1260.8 1080.17 1340.33 1061.32 1369 1052H1172V1081Z" fill="#6F7075"/>
<mask id="mask0_231_99" style="mask-type:alpha" maskUnits="userSpaceOnUse" x="0" y="1052" width="1173" height="29">
<path d="M1173 1052H-2.21241e-05V1081H1173V1052Z" fill="#6F7075"/>
</mask>
<g mask="url(#mask0_231_99)">
<path d="M2436 -78.2338C2436 -112.899 2407.9 -141 2373.23 -141H62.7709C28.1035 -141 -5.71012e-05 -112.899 -5.71012e-05 -78.2339V1018.23C-5.71012e-05 1052.9 28.1035 1081 62.7709 1081H2373.23C2407.9 1081 2436 1052.9 2436 1018.23V-78.2338Z" fill="#6F7075"/>
</g>
<mask id="mask1_231_99" style="mask-type:alpha" maskUnits="userSpaceOnUse" x="0" y="1040" width="1380" height="12">
<path d="M1380 1040H-2.93922e-05V1052H1380V1040Z" fill="#D9D9D9"/>
</mask>
<g mask="url(#mask1_231_99)">
<path d="M2436 -78.2338C2436 -112.899 2407.9 -141 2373.23 -141H62.7709C28.1035 -141 -5.71012e-05 -112.899 -5.71012e-05 -78.2339V1018.23C-5.71012e-05 1052.9 28.1035 1081 62.7709 1081H2373.23C2407.9 1081 2436 1052.9 2436 1018.23V-78.2338Z" fill="#D9D9D9"/>
</g>
<mask id="mask2_231_99" style="mask-type:alpha" maskUnits="userSpaceOnUse" x="0" y="41" width="1216" height="999">
<path d="M1216 87.0337C1216 61.61 1195.39 41 1169.97 41H3.13067e-05V1040H1216V87.0337Z" fill="#8E8F94"/>
</mask>
<g mask="url(#mask2_231_99)">
<path d="M2436 -78.2338C2436 -112.899 2407.9 -141 2373.23 -141H62.7709C28.1035 -141 -5.71012e-05 -112.899 -5.71012e-05 -78.2339V1018.23C-5.71012e-05 1052.9 28.1035 1081 62.7709 1081H2373.23C2407.9 1081 2436 1052.9 2436 1018.23V-78.2338Z" fill="#8E8F94"/>
</g>
<mask id="mask3_231_99" style="mask-type:alpha" maskUnits="userSpaceOnUse" x="0" y="45" width="1210" height="995">
<path d="M1210 91.038C1210 65.6119 1189.39 45 1163.96 45H4.67894e-05V1040H1210V91.038Z" fill="black"/>
</mask>
<g mask="url(#mask3_231_99)">
<path d="M2436 -78.2338C2436 -112.899 2407.9 -141 2373.23 -141H62.7709C28.1035 -141 -5.71012e-05 -112.899 -5.71012e-05 -78.2339V1018.23C-5.71012e-05 1052.9 28.1035 1081 62.7709 1081H2373.23C2407.9 1081 2436 1052.9 2436 1018.23V-78.2338Z" fill="black"/>
</g>
<path d="M1176 104H9.05991e-06V983H1176V104Z" fill="white"/>
<path d="M626 1039H316V1052H626V1039Z" fill="#B5B5B5"/>
</svg>
